<mxfile host="Electron" modified="2024-08-01T20:09:10.940Z" agent="Mozilla/5.0 (Windows NT 10.0; Win64; x64) AppleWebKit/537.36 (KHTML, like Gecko) draw.io/24.5.3 Chrome/124.0.6367.207 Electron/30.0.6 Safari/537.36" etag="p5XDKQXRl0KEE0JebjCe" version="24.5.3" type="device">
  <diagram name="PÃ¡gina-1" id="1jSZG0sVonBG3miUWWMu">
    <mxGraphModel dx="707" dy="492" grid="1" gridSize="10" guides="1" tooltips="1" connect="1" arrows="1" fold="1" page="1" pageScale="1" pageWidth="827" pageHeight="1169" math="0" shadow="0">
      <root>
        <mxCell id="0" />
        <mxCell id="1" parent="0" />
        <mxCell id="BVZRWS0BD94PqxGaZcw--161" value="Iphone" style="swimlane;fontStyle=1;align=center;verticalAlign=top;childLayout=stackLayout;horizontal=1;startSize=30;horizontalStack=0;resizeParent=1;resizeParentMax=0;resizeLast=0;collapsible=0;marginBottom=0;" vertex="1" parent="1">
          <mxGeometry x="20" y="124" width="188" height="105" as="geometry" />
        </mxCell>
        <mxCell id="BVZRWS0BD94PqxGaZcw--162" value="+ReprodutorMusical ipod" style="text;strokeColor=none;fillColor=none;align=left;verticalAlign=top;spacingLeft=4;spacingRight=4;overflow=hidden;rotatable=0;points=[[0,0.5],[1,0.5]];portConstraint=eastwest;" vertex="1" parent="BVZRWS0BD94PqxGaZcw--161">
          <mxGeometry y="30" width="188" height="30" as="geometry" />
        </mxCell>
        <mxCell id="BVZRWS0BD94PqxGaZcw--163" value="+AparelhoTelefonico telefone" style="text;strokeColor=none;fillColor=none;align=left;verticalAlign=top;spacingLeft=4;spacingRight=4;overflow=hidden;rotatable=0;points=[[0,0.5],[1,0.5]];portConstraint=eastwest;" vertex="1" parent="BVZRWS0BD94PqxGaZcw--161">
          <mxGeometry y="60" width="188" height="30" as="geometry" />
        </mxCell>
        <mxCell id="BVZRWS0BD94PqxGaZcw--164" style="line;strokeWidth=1;fillColor=none;align=left;verticalAlign=middle;spacingTop=-1;spacingLeft=3;spacingRight=3;rotatable=0;labelPosition=right;points=[];portConstraint=eastwest;strokeColor=inherit;" vertex="1" parent="BVZRWS0BD94PqxGaZcw--161">
          <mxGeometry y="90" width="188" height="15" as="geometry" />
        </mxCell>
        <mxCell id="BVZRWS0BD94PqxGaZcw--165" value="ReprodutorMusical" style="swimlane;fontStyle=1;align=center;verticalAlign=top;childLayout=stackLayout;horizontal=1;startSize=28.454545454545453;horizontalStack=0;resizeParent=1;resizeParentMax=0;resizeLast=0;collapsible=0;marginBottom=0;" vertex="1" parent="1">
          <mxGeometry x="258" y="20" width="212" height="400.45454545454544" as="geometry" />
        </mxCell>
        <mxCell id="BVZRWS0BD94PqxGaZcw--166" value="+List&lt;ListaPessoal&gt; listasPessoais" style="text;strokeColor=none;fillColor=none;align=left;verticalAlign=top;spacingLeft=4;spacingRight=4;overflow=hidden;rotatable=0;points=[[0,0.5],[1,0.5]];portConstraint=eastwest;" vertex="1" parent="BVZRWS0BD94PqxGaZcw--165">
          <mxGeometry y="28.454545454545453" width="212" height="28" as="geometry" />
        </mxCell>
        <mxCell id="BVZRWS0BD94PqxGaZcw--167" value="+List&lt;Artista&gt; artistas" style="text;strokeColor=none;fillColor=none;align=left;verticalAlign=top;spacingLeft=4;spacingRight=4;overflow=hidden;rotatable=0;points=[[0,0.5],[1,0.5]];portConstraint=eastwest;" vertex="1" parent="BVZRWS0BD94PqxGaZcw--165">
          <mxGeometry y="56.45454545454545" width="212" height="28" as="geometry" />
        </mxCell>
        <mxCell id="BVZRWS0BD94PqxGaZcw--168" value="+List&lt;Musica&gt; musicas" style="text;strokeColor=none;fillColor=none;align=left;verticalAlign=top;spacingLeft=4;spacingRight=4;overflow=hidden;rotatable=0;points=[[0,0.5],[1,0.5]];portConstraint=eastwest;" vertex="1" parent="BVZRWS0BD94PqxGaZcw--165">
          <mxGeometry y="84.45454545454545" width="212" height="28" as="geometry" />
        </mxCell>
        <mxCell id="BVZRWS0BD94PqxGaZcw--169" value="+List&lt;Video&gt; videos" style="text;strokeColor=none;fillColor=none;align=left;verticalAlign=top;spacingLeft=4;spacingRight=4;overflow=hidden;rotatable=0;points=[[0,0.5],[1,0.5]];portConstraint=eastwest;" vertex="1" parent="BVZRWS0BD94PqxGaZcw--165">
          <mxGeometry y="112.45454545454545" width="212" height="28" as="geometry" />
        </mxCell>
        <mxCell id="BVZRWS0BD94PqxGaZcw--170" style="line;strokeWidth=1;fillColor=none;align=left;verticalAlign=middle;spacingTop=-1;spacingLeft=3;spacingRight=3;rotatable=0;labelPosition=right;points=[];portConstraint=eastwest;strokeColor=inherit;" vertex="1" parent="BVZRWS0BD94PqxGaZcw--165">
          <mxGeometry y="140.45454545454544" width="212" height="8" as="geometry" />
        </mxCell>
        <mxCell id="BVZRWS0BD94PqxGaZcw--171" value="+void exibirListasPessoais()" style="text;strokeColor=none;fillColor=none;align=left;verticalAlign=top;spacingLeft=4;spacingRight=4;overflow=hidden;rotatable=0;points=[[0,0.5],[1,0.5]];portConstraint=eastwest;" vertex="1" parent="BVZRWS0BD94PqxGaZcw--165">
          <mxGeometry y="148.45454545454544" width="212" height="28" as="geometry" />
        </mxCell>
        <mxCell id="BVZRWS0BD94PqxGaZcw--172" value="+void exibirArtistas()" style="text;strokeColor=none;fillColor=none;align=left;verticalAlign=top;spacingLeft=4;spacingRight=4;overflow=hidden;rotatable=0;points=[[0,0.5],[1,0.5]];portConstraint=eastwest;" vertex="1" parent="BVZRWS0BD94PqxGaZcw--165">
          <mxGeometry y="176.45454545454544" width="212" height="28" as="geometry" />
        </mxCell>
        <mxCell id="BVZRWS0BD94PqxGaZcw--173" value="+void exibirMusicas()" style="text;strokeColor=none;fillColor=none;align=left;verticalAlign=top;spacingLeft=4;spacingRight=4;overflow=hidden;rotatable=0;points=[[0,0.5],[1,0.5]];portConstraint=eastwest;" vertex="1" parent="BVZRWS0BD94PqxGaZcw--165">
          <mxGeometry y="204.45454545454544" width="212" height="28" as="geometry" />
        </mxCell>
        <mxCell id="BVZRWS0BD94PqxGaZcw--174" value="+void exibirVideos()" style="text;strokeColor=none;fillColor=none;align=left;verticalAlign=top;spacingLeft=4;spacingRight=4;overflow=hidden;rotatable=0;points=[[0,0.5],[1,0.5]];portConstraint=eastwest;" vertex="1" parent="BVZRWS0BD94PqxGaZcw--165">
          <mxGeometry y="232.45454545454544" width="212" height="28" as="geometry" />
        </mxCell>
        <mxCell id="BVZRWS0BD94PqxGaZcw--175" value="+void selecionarMusica(String titulo)" style="text;strokeColor=none;fillColor=none;align=left;verticalAlign=top;spacingLeft=4;spacingRight=4;overflow=hidden;rotatable=0;points=[[0,0.5],[1,0.5]];portConstraint=eastwest;" vertex="1" parent="BVZRWS0BD94PqxGaZcw--165">
          <mxGeometry y="260.45454545454544" width="212" height="28" as="geometry" />
        </mxCell>
        <mxCell id="BVZRWS0BD94PqxGaZcw--176" value="+void proximaMusica()" style="text;strokeColor=none;fillColor=none;align=left;verticalAlign=top;spacingLeft=4;spacingRight=4;overflow=hidden;rotatable=0;points=[[0,0.5],[1,0.5]];portConstraint=eastwest;" vertex="1" parent="BVZRWS0BD94PqxGaZcw--165">
          <mxGeometry y="288.45454545454544" width="212" height="28" as="geometry" />
        </mxCell>
        <mxCell id="BVZRWS0BD94PqxGaZcw--239" value="+void anteriorMusica()" style="text;strokeColor=none;fillColor=none;align=left;verticalAlign=top;spacingLeft=4;spacingRight=4;overflow=hidden;rotatable=0;points=[[0,0.5],[1,0.5]];portConstraint=eastwest;" vertex="1" parent="BVZRWS0BD94PqxGaZcw--165">
          <mxGeometry y="316.45454545454544" width="212" height="28" as="geometry" />
        </mxCell>
        <mxCell id="BVZRWS0BD94PqxGaZcw--240" value="+void proximoVideo()" style="text;strokeColor=none;fillColor=none;align=left;verticalAlign=top;spacingLeft=4;spacingRight=4;overflow=hidden;rotatable=0;points=[[0,0.5],[1,0.5]];portConstraint=eastwest;" vertex="1" parent="BVZRWS0BD94PqxGaZcw--165">
          <mxGeometry y="344.45454545454544" width="212" height="28" as="geometry" />
        </mxCell>
        <mxCell id="BVZRWS0BD94PqxGaZcw--241" value="+void anteriorVideo()" style="text;strokeColor=none;fillColor=none;align=left;verticalAlign=top;spacingLeft=4;spacingRight=4;overflow=hidden;rotatable=0;points=[[0,0.5],[1,0.5]];portConstraint=eastwest;" vertex="1" parent="BVZRWS0BD94PqxGaZcw--165">
          <mxGeometry y="372.45454545454544" width="212" height="28" as="geometry" />
        </mxCell>
        <mxCell id="BVZRWS0BD94PqxGaZcw--177" value="AparelhoTelefonico" style="swimlane;fontStyle=1;align=center;verticalAlign=top;childLayout=stackLayout;horizontal=1;startSize=28.7;horizontalStack=0;resizeParent=1;resizeParentMax=0;resizeLast=0;collapsible=0;marginBottom=0;" vertex="1" parent="1">
          <mxGeometry x="928" y="33" width="269" height="326.7" as="geometry" />
        </mxCell>
        <mxCell id="BVZRWS0BD94PqxGaZcw--178" value="+List&lt;Contato&gt; favoritos" style="text;strokeColor=none;fillColor=none;align=left;verticalAlign=top;spacingLeft=4;spacingRight=4;overflow=hidden;rotatable=0;points=[[0,0.5],[1,0.5]];portConstraint=eastwest;" vertex="1" parent="BVZRWS0BD94PqxGaZcw--177">
          <mxGeometry y="28.7" width="269" height="29" as="geometry" />
        </mxCell>
        <mxCell id="BVZRWS0BD94PqxGaZcw--179" value="+List&lt;Chamada&gt; recentes" style="text;strokeColor=none;fillColor=none;align=left;verticalAlign=top;spacingLeft=4;spacingRight=4;overflow=hidden;rotatable=0;points=[[0,0.5],[1,0.5]];portConstraint=eastwest;" vertex="1" parent="BVZRWS0BD94PqxGaZcw--177">
          <mxGeometry y="57.7" width="269" height="29" as="geometry" />
        </mxCell>
        <mxCell id="BVZRWS0BD94PqxGaZcw--180" value="+List&lt;Contato&gt; contatos" style="text;strokeColor=none;fillColor=none;align=left;verticalAlign=top;spacingLeft=4;spacingRight=4;overflow=hidden;rotatable=0;points=[[0,0.5],[1,0.5]];portConstraint=eastwest;" vertex="1" parent="BVZRWS0BD94PqxGaZcw--177">
          <mxGeometry y="86.7" width="269" height="29" as="geometry" />
        </mxCell>
        <mxCell id="BVZRWS0BD94PqxGaZcw--181" value="+List&lt;CorreioDeVoz&gt; correiosDeVoz" style="text;strokeColor=none;fillColor=none;align=left;verticalAlign=top;spacingLeft=4;spacingRight=4;overflow=hidden;rotatable=0;points=[[0,0.5],[1,0.5]];portConstraint=eastwest;" vertex="1" parent="BVZRWS0BD94PqxGaZcw--177">
          <mxGeometry y="115.7" width="269" height="29" as="geometry" />
        </mxCell>
        <mxCell id="BVZRWS0BD94PqxGaZcw--182" style="line;strokeWidth=1;fillColor=none;align=left;verticalAlign=middle;spacingTop=-1;spacingLeft=3;spacingRight=3;rotatable=0;labelPosition=right;points=[];portConstraint=eastwest;strokeColor=inherit;" vertex="1" parent="BVZRWS0BD94PqxGaZcw--177">
          <mxGeometry y="144.7" width="269" height="8" as="geometry" />
        </mxCell>
        <mxCell id="BVZRWS0BD94PqxGaZcw--184" value="+void exibirRecentes()" style="text;strokeColor=none;fillColor=none;align=left;verticalAlign=top;spacingLeft=4;spacingRight=4;overflow=hidden;rotatable=0;points=[[0,0.5],[1,0.5]];portConstraint=eastwest;" vertex="1" parent="BVZRWS0BD94PqxGaZcw--177">
          <mxGeometry y="152.7" width="269" height="29" as="geometry" />
        </mxCell>
        <mxCell id="BVZRWS0BD94PqxGaZcw--185" value="+void exibirContatos()" style="text;strokeColor=none;fillColor=none;align=left;verticalAlign=top;spacingLeft=4;spacingRight=4;overflow=hidden;rotatable=0;points=[[0,0.5],[1,0.5]];portConstraint=eastwest;" vertex="1" parent="BVZRWS0BD94PqxGaZcw--177">
          <mxGeometry y="181.7" width="269" height="29" as="geometry" />
        </mxCell>
        <mxCell id="BVZRWS0BD94PqxGaZcw--186" value="+void exibirTeclado()" style="text;strokeColor=none;fillColor=none;align=left;verticalAlign=top;spacingLeft=4;spacingRight=4;overflow=hidden;rotatable=0;points=[[0,0.5],[1,0.5]];portConstraint=eastwest;" vertex="1" parent="BVZRWS0BD94PqxGaZcw--177">
          <mxGeometry y="210.7" width="269" height="29" as="geometry" />
        </mxCell>
        <mxCell id="BVZRWS0BD94PqxGaZcw--187" value="+void exibirCorreioDeVoz()" style="text;strokeColor=none;fillColor=none;align=left;verticalAlign=top;spacingLeft=4;spacingRight=4;overflow=hidden;rotatable=0;points=[[0,0.5],[1,0.5]];portConstraint=eastwest;" vertex="1" parent="BVZRWS0BD94PqxGaZcw--177">
          <mxGeometry y="239.7" width="269" height="29" as="geometry" />
        </mxCell>
        <mxCell id="BVZRWS0BD94PqxGaZcw--244" value="+void ligar(String numero)" style="text;strokeColor=none;fillColor=none;align=left;verticalAlign=top;spacingLeft=4;spacingRight=4;overflow=hidden;rotatable=0;points=[[0,0.5],[1,0.5]];portConstraint=eastwest;" vertex="1" parent="BVZRWS0BD94PqxGaZcw--177">
          <mxGeometry y="268.7" width="269" height="29" as="geometry" />
        </mxCell>
        <mxCell id="BVZRWS0BD94PqxGaZcw--245" value="+void atender()" style="text;strokeColor=none;fillColor=none;align=left;verticalAlign=top;spacingLeft=4;spacingRight=4;overflow=hidden;rotatable=0;points=[[0,0.5],[1,0.5]];portConstraint=eastwest;" vertex="1" parent="BVZRWS0BD94PqxGaZcw--177">
          <mxGeometry y="297.7" width="269" height="29" as="geometry" />
        </mxCell>
        <mxCell id="BVZRWS0BD94PqxGaZcw--188" value="Musica" style="swimlane;fontStyle=1;align=center;verticalAlign=top;childLayout=stackLayout;horizontal=1;startSize=30;horizontalStack=0;resizeParent=1;resizeParentMax=0;resizeLast=0;collapsible=0;marginBottom=0;" vertex="1" parent="1">
          <mxGeometry x="31" y="391" width="113" height="105" as="geometry" />
        </mxCell>
        <mxCell id="BVZRWS0BD94PqxGaZcw--189" value="+String titulo" style="text;strokeColor=none;fillColor=none;align=left;verticalAlign=top;spacingLeft=4;spacingRight=4;overflow=hidden;rotatable=0;points=[[0,0.5],[1,0.5]];portConstraint=eastwest;" vertex="1" parent="BVZRWS0BD94PqxGaZcw--188">
          <mxGeometry y="30" width="113" height="30" as="geometry" />
        </mxCell>
        <mxCell id="BVZRWS0BD94PqxGaZcw--190" value="+Album album" style="text;strokeColor=none;fillColor=none;align=left;verticalAlign=top;spacingLeft=4;spacingRight=4;overflow=hidden;rotatable=0;points=[[0,0.5],[1,0.5]];portConstraint=eastwest;" vertex="1" parent="BVZRWS0BD94PqxGaZcw--188">
          <mxGeometry y="60" width="113" height="30" as="geometry" />
        </mxCell>
        <mxCell id="BVZRWS0BD94PqxGaZcw--191" style="line;strokeWidth=1;fillColor=none;align=left;verticalAlign=middle;spacingTop=-1;spacingLeft=3;spacingRight=3;rotatable=0;labelPosition=right;points=[];portConstraint=eastwest;strokeColor=inherit;" vertex="1" parent="BVZRWS0BD94PqxGaZcw--188">
          <mxGeometry y="90" width="113" height="15" as="geometry" />
        </mxCell>
        <mxCell id="BVZRWS0BD94PqxGaZcw--192" value="Album" style="swimlane;fontStyle=1;align=center;verticalAlign=top;childLayout=stackLayout;horizontal=1;startSize=31.6;horizontalStack=0;resizeParent=1;resizeParentMax=0;resizeLast=0;collapsible=0;marginBottom=0;" vertex="1" parent="1">
          <mxGeometry x="20" y="593" width="102" height="79.6" as="geometry" />
        </mxCell>
        <mxCell id="BVZRWS0BD94PqxGaZcw--193" value="+String capa" style="text;strokeColor=none;fillColor=none;align=left;verticalAlign=top;spacingLeft=4;spacingRight=4;overflow=hidden;rotatable=0;points=[[0,0.5],[1,0.5]];portConstraint=eastwest;" vertex="1" parent="BVZRWS0BD94PqxGaZcw--192">
          <mxGeometry y="31.6" width="102" height="32" as="geometry" />
        </mxCell>
        <mxCell id="BVZRWS0BD94PqxGaZcw--194" style="line;strokeWidth=1;fillColor=none;align=left;verticalAlign=middle;spacingTop=-1;spacingLeft=3;spacingRight=3;rotatable=0;labelPosition=right;points=[];portConstraint=eastwest;strokeColor=inherit;" vertex="1" parent="BVZRWS0BD94PqxGaZcw--192">
          <mxGeometry y="63.6" width="102" height="16" as="geometry" />
        </mxCell>
        <mxCell id="BVZRWS0BD94PqxGaZcw--195" value="Video" style="swimlane;fontStyle=1;align=center;verticalAlign=top;childLayout=stackLayout;horizontal=1;startSize=31.6;horizontalStack=0;resizeParent=1;resizeParentMax=0;resizeLast=0;collapsible=0;marginBottom=0;" vertex="1" parent="1">
          <mxGeometry x="370" y="554" width="107" height="79.6" as="geometry" />
        </mxCell>
        <mxCell id="BVZRWS0BD94PqxGaZcw--196" value="+String titulo" style="text;strokeColor=none;fillColor=none;align=left;verticalAlign=top;spacingLeft=4;spacingRight=4;overflow=hidden;rotatable=0;points=[[0,0.5],[1,0.5]];portConstraint=eastwest;" vertex="1" parent="BVZRWS0BD94PqxGaZcw--195">
          <mxGeometry y="31.6" width="107" height="32" as="geometry" />
        </mxCell>
        <mxCell id="BVZRWS0BD94PqxGaZcw--197" style="line;strokeWidth=1;fillColor=none;align=left;verticalAlign=middle;spacingTop=-1;spacingLeft=3;spacingRight=3;rotatable=0;labelPosition=right;points=[];portConstraint=eastwest;strokeColor=inherit;" vertex="1" parent="BVZRWS0BD94PqxGaZcw--195">
          <mxGeometry y="63.6" width="107" height="16" as="geometry" />
        </mxCell>
        <mxCell id="BVZRWS0BD94PqxGaZcw--198" value="Contato" style="swimlane;fontStyle=1;align=center;verticalAlign=top;childLayout=stackLayout;horizontal=1;startSize=30;horizontalStack=0;resizeParent=1;resizeParentMax=0;resizeLast=0;collapsible=0;marginBottom=0;" vertex="1" parent="1">
          <mxGeometry x="800" y="391" width="122" height="105" as="geometry" />
        </mxCell>
        <mxCell id="BVZRWS0BD94PqxGaZcw--199" value="+String nome" style="text;strokeColor=none;fillColor=none;align=left;verticalAlign=top;spacingLeft=4;spacingRight=4;overflow=hidden;rotatable=0;points=[[0,0.5],[1,0.5]];portConstraint=eastwest;" vertex="1" parent="BVZRWS0BD94PqxGaZcw--198">
          <mxGeometry y="30" width="122" height="30" as="geometry" />
        </mxCell>
        <mxCell id="BVZRWS0BD94PqxGaZcw--200" value="+String numero" style="text;strokeColor=none;fillColor=none;align=left;verticalAlign=top;spacingLeft=4;spacingRight=4;overflow=hidden;rotatable=0;points=[[0,0.5],[1,0.5]];portConstraint=eastwest;" vertex="1" parent="BVZRWS0BD94PqxGaZcw--198">
          <mxGeometry y="60" width="122" height="30" as="geometry" />
        </mxCell>
        <mxCell id="BVZRWS0BD94PqxGaZcw--201" style="line;strokeWidth=1;fillColor=none;align=left;verticalAlign=middle;spacingTop=-1;spacingLeft=3;spacingRight=3;rotatable=0;labelPosition=right;points=[];portConstraint=eastwest;strokeColor=inherit;" vertex="1" parent="BVZRWS0BD94PqxGaZcw--198">
          <mxGeometry y="90" width="122" height="15" as="geometry" />
        </mxCell>
        <mxCell id="BVZRWS0BD94PqxGaZcw--202" value="Artista" style="swimlane;fontStyle=1;align=center;verticalAlign=top;childLayout=stackLayout;horizontal=1;startSize=30;horizontalStack=0;resizeParent=1;resizeParentMax=0;resizeLast=0;collapsible=0;marginBottom=0;" vertex="1" parent="1">
          <mxGeometry x="520" y="528.6" width="169" height="105" as="geometry" />
        </mxCell>
        <mxCell id="BVZRWS0BD94PqxGaZcw--203" value="+String nome" style="text;strokeColor=none;fillColor=none;align=left;verticalAlign=top;spacingLeft=4;spacingRight=4;overflow=hidden;rotatable=0;points=[[0,0.5],[1,0.5]];portConstraint=eastwest;" vertex="1" parent="BVZRWS0BD94PqxGaZcw--202">
          <mxGeometry y="30" width="169" height="30" as="geometry" />
        </mxCell>
        <mxCell id="BVZRWS0BD94PqxGaZcw--204" value="+List&lt;Musica&gt; musicas" style="text;strokeColor=none;fillColor=none;align=left;verticalAlign=top;spacingLeft=4;spacingRight=4;overflow=hidden;rotatable=0;points=[[0,0.5],[1,0.5]];portConstraint=eastwest;" vertex="1" parent="BVZRWS0BD94PqxGaZcw--202">
          <mxGeometry y="60" width="169" height="30" as="geometry" />
        </mxCell>
        <mxCell id="BVZRWS0BD94PqxGaZcw--205" style="line;strokeWidth=1;fillColor=none;align=left;verticalAlign=middle;spacingTop=-1;spacingLeft=3;spacingRight=3;rotatable=0;labelPosition=right;points=[];portConstraint=eastwest;strokeColor=inherit;" vertex="1" parent="BVZRWS0BD94PqxGaZcw--202">
          <mxGeometry y="90" width="169" height="15" as="geometry" />
        </mxCell>
        <mxCell id="BVZRWS0BD94PqxGaZcw--206" value="ListaPessoal" style="swimlane;fontStyle=1;align=center;verticalAlign=top;childLayout=stackLayout;horizontal=1;startSize=30;horizontalStack=0;resizeParent=1;resizeParentMax=0;resizeLast=0;collapsible=0;marginBottom=0;" vertex="1" parent="1">
          <mxGeometry x="581" y="391" width="169" height="105" as="geometry" />
        </mxCell>
        <mxCell id="BVZRWS0BD94PqxGaZcw--207" value="+String nome" style="text;strokeColor=none;fillColor=none;align=left;verticalAlign=top;spacingLeft=4;spacingRight=4;overflow=hidden;rotatable=0;points=[[0,0.5],[1,0.5]];portConstraint=eastwest;" vertex="1" parent="BVZRWS0BD94PqxGaZcw--206">
          <mxGeometry y="30" width="169" height="30" as="geometry" />
        </mxCell>
        <mxCell id="BVZRWS0BD94PqxGaZcw--208" value="+List&lt;Musica&gt; musicas" style="text;strokeColor=none;fillColor=none;align=left;verticalAlign=top;spacingLeft=4;spacingRight=4;overflow=hidden;rotatable=0;points=[[0,0.5],[1,0.5]];portConstraint=eastwest;" vertex="1" parent="BVZRWS0BD94PqxGaZcw--206">
          <mxGeometry y="60" width="169" height="30" as="geometry" />
        </mxCell>
        <mxCell id="BVZRWS0BD94PqxGaZcw--209" style="line;strokeWidth=1;fillColor=none;align=left;verticalAlign=middle;spacingTop=-1;spacingLeft=3;spacingRight=3;rotatable=0;labelPosition=right;points=[];portConstraint=eastwest;strokeColor=inherit;" vertex="1" parent="BVZRWS0BD94PqxGaZcw--206">
          <mxGeometry y="90" width="169" height="15" as="geometry" />
        </mxCell>
        <mxCell id="BVZRWS0BD94PqxGaZcw--210" value="Chamada" style="swimlane;fontStyle=1;align=center;verticalAlign=top;childLayout=stackLayout;horizontal=1;startSize=30;horizontalStack=0;resizeParent=1;resizeParentMax=0;resizeLast=0;collapsible=0;marginBottom=0;" vertex="1" parent="1">
          <mxGeometry x="972" y="391" width="146" height="135" as="geometry" />
        </mxCell>
        <mxCell id="BVZRWS0BD94PqxGaZcw--211" value="+String data" style="text;strokeColor=none;fillColor=none;align=left;verticalAlign=top;spacingLeft=4;spacingRight=4;overflow=hidden;rotatable=0;points=[[0,0.5],[1,0.5]];portConstraint=eastwest;" vertex="1" parent="BVZRWS0BD94PqxGaZcw--210">
          <mxGeometry y="30" width="146" height="30" as="geometry" />
        </mxCell>
        <mxCell id="BVZRWS0BD94PqxGaZcw--212" value="+boolean atendida" style="text;strokeColor=none;fillColor=none;align=left;verticalAlign=top;spacingLeft=4;spacingRight=4;overflow=hidden;rotatable=0;points=[[0,0.5],[1,0.5]];portConstraint=eastwest;" vertex="1" parent="BVZRWS0BD94PqxGaZcw--210">
          <mxGeometry y="60" width="146" height="30" as="geometry" />
        </mxCell>
        <mxCell id="BVZRWS0BD94PqxGaZcw--242" value="+Contato contato" style="text;strokeColor=none;fillColor=none;align=left;verticalAlign=top;spacingLeft=4;spacingRight=4;overflow=hidden;rotatable=0;points=[[0,0.5],[1,0.5]];portConstraint=eastwest;" vertex="1" parent="BVZRWS0BD94PqxGaZcw--210">
          <mxGeometry y="90" width="146" height="30" as="geometry" />
        </mxCell>
        <mxCell id="BVZRWS0BD94PqxGaZcw--213" style="line;strokeWidth=1;fillColor=none;align=left;verticalAlign=middle;spacingTop=-1;spacingLeft=3;spacingRight=3;rotatable=0;labelPosition=right;points=[];portConstraint=eastwest;strokeColor=inherit;" vertex="1" parent="BVZRWS0BD94PqxGaZcw--210">
          <mxGeometry y="120" width="146" height="15" as="geometry" />
        </mxCell>
        <mxCell id="BVZRWS0BD94PqxGaZcw--214" value="CorreioDeVoz" style="swimlane;fontStyle=1;align=center;verticalAlign=top;childLayout=stackLayout;horizontal=1;startSize=31.6;horizontalStack=0;resizeParent=1;resizeParentMax=0;resizeLast=0;collapsible=0;marginBottom=0;" vertex="1" parent="1">
          <mxGeometry x="1168" y="404" width="143" height="111.6" as="geometry" />
        </mxCell>
        <mxCell id="BVZRWS0BD94PqxGaZcw--215" value="+String mensagem" style="text;strokeColor=none;fillColor=none;align=left;verticalAlign=top;spacingLeft=4;spacingRight=4;overflow=hidden;rotatable=0;points=[[0,0.5],[1,0.5]];portConstraint=eastwest;" vertex="1" parent="BVZRWS0BD94PqxGaZcw--214">
          <mxGeometry y="31.6" width="143" height="32" as="geometry" />
        </mxCell>
        <mxCell id="BVZRWS0BD94PqxGaZcw--243" value="+Contato contato" style="text;strokeColor=none;fillColor=none;align=left;verticalAlign=top;spacingLeft=4;spacingRight=4;overflow=hidden;rotatable=0;points=[[0,0.5],[1,0.5]];portConstraint=eastwest;" vertex="1" parent="BVZRWS0BD94PqxGaZcw--214">
          <mxGeometry y="63.6" width="143" height="32" as="geometry" />
        </mxCell>
        <mxCell id="BVZRWS0BD94PqxGaZcw--216" style="line;strokeWidth=1;fillColor=none;align=left;verticalAlign=middle;spacingTop=-1;spacingLeft=3;spacingRight=3;rotatable=0;labelPosition=right;points=[];portConstraint=eastwest;strokeColor=inherit;" vertex="1" parent="BVZRWS0BD94PqxGaZcw--214">
          <mxGeometry y="95.6" width="143" height="16" as="geometry" />
        </mxCell>
        <mxCell id="BVZRWS0BD94PqxGaZcw--217" value="&lt;&lt;interface&gt;&gt;&#xa;MediaControl" style="swimlane;fontStyle=1;align=center;verticalAlign=top;childLayout=stackLayout;horizontal=1;startSize=47.099999999999994;horizontalStack=0;resizeParent=1;resizeParentMax=0;resizeLast=0;collapsible=0;marginBottom=0;" vertex="1" parent="1">
          <mxGeometry x="174" y="554" width="149" height="210.1" as="geometry" />
        </mxCell>
        <mxCell id="BVZRWS0BD94PqxGaZcw--218" style="line;strokeWidth=1;fillColor=none;align=left;verticalAlign=middle;spacingTop=-1;spacingLeft=3;spacingRight=3;rotatable=0;labelPosition=right;points=[];portConstraint=eastwest;strokeColor=inherit;" vertex="1" parent="BVZRWS0BD94PqxGaZcw--217">
          <mxGeometry y="47.099999999999994" width="149" height="8" as="geometry" />
        </mxCell>
        <mxCell id="BVZRWS0BD94PqxGaZcw--219" value="+void pausar()" style="text;strokeColor=none;fillColor=none;align=left;verticalAlign=top;spacingLeft=4;spacingRight=4;overflow=hidden;rotatable=0;points=[[0,0.5],[1,0.5]];portConstraint=eastwest;" vertex="1" parent="BVZRWS0BD94PqxGaZcw--217">
          <mxGeometry y="55.099999999999994" width="149" height="31" as="geometry" />
        </mxCell>
        <mxCell id="BVZRWS0BD94PqxGaZcw--220" value="+void tocar()" style="text;strokeColor=none;fillColor=none;align=left;verticalAlign=top;spacingLeft=4;spacingRight=4;overflow=hidden;rotatable=0;points=[[0,0.5],[1,0.5]];portConstraint=eastwest;" vertex="1" parent="BVZRWS0BD94PqxGaZcw--217">
          <mxGeometry y="86.1" width="149" height="31" as="geometry" />
        </mxCell>
        <mxCell id="BVZRWS0BD94PqxGaZcw--221" value="+void parar()" style="text;strokeColor=none;fillColor=none;align=left;verticalAlign=top;spacingLeft=4;spacingRight=4;overflow=hidden;rotatable=0;points=[[0,0.5],[1,0.5]];portConstraint=eastwest;" vertex="1" parent="BVZRWS0BD94PqxGaZcw--217">
          <mxGeometry y="117.1" width="149" height="31" as="geometry" />
        </mxCell>
        <mxCell id="BVZRWS0BD94PqxGaZcw--236" value="+void aumentarVolume()" style="text;strokeColor=none;fillColor=none;align=left;verticalAlign=top;spacingLeft=4;spacingRight=4;overflow=hidden;rotatable=0;points=[[0,0.5],[1,0.5]];portConstraint=eastwest;" vertex="1" parent="BVZRWS0BD94PqxGaZcw--217">
          <mxGeometry y="148.1" width="149" height="31" as="geometry" />
        </mxCell>
        <mxCell id="BVZRWS0BD94PqxGaZcw--237" value="+void diminuirVolume()" style="text;strokeColor=none;fillColor=none;align=left;verticalAlign=top;spacingLeft=4;spacingRight=4;overflow=hidden;rotatable=0;points=[[0,0.5],[1,0.5]];portConstraint=eastwest;" vertex="1" parent="BVZRWS0BD94PqxGaZcw--217">
          <mxGeometry y="179.1" width="149" height="31" as="geometry" />
        </mxCell>
        <mxCell id="BVZRWS0BD94PqxGaZcw--222" value="" style="curved=1;startArrow=none;endArrow=open;endSize=12;exitX=0;exitY=0.71;entryX=0.5;entryY=0;rounded=0;" edge="1" parent="1" source="BVZRWS0BD94PqxGaZcw--165" target="BVZRWS0BD94PqxGaZcw--188">
          <mxGeometry relative="1" as="geometry">
            <Array as="points">
              <mxPoint x="88" y="366" />
            </Array>
          </mxGeometry>
        </mxCell>
        <mxCell id="BVZRWS0BD94PqxGaZcw--224" value="" style="curved=1;startArrow=none;endArrow=open;endSize=12;exitX=0.766;exitY=1.111;entryX=0.178;entryY=0.013;rounded=0;exitDx=0;exitDy=0;exitPerimeter=0;entryDx=0;entryDy=0;entryPerimeter=0;" edge="1" parent="1" source="BVZRWS0BD94PqxGaZcw--241" target="BVZRWS0BD94PqxGaZcw--202">
          <mxGeometry relative="1" as="geometry">
            <Array as="points" />
            <mxPoint x="560.004" y="457.05854545454554" as="sourcePoint" />
            <mxPoint x="569.72" y="509.9999999999999" as="targetPoint" />
          </mxGeometry>
        </mxCell>
        <mxCell id="BVZRWS0BD94PqxGaZcw--225" value="" style="curved=1;startArrow=none;endArrow=open;endSize=12;exitX=1;exitY=0.68;entryX=0.5;entryY=0;rounded=0;" edge="1" parent="1" source="BVZRWS0BD94PqxGaZcw--165" target="BVZRWS0BD94PqxGaZcw--206">
          <mxGeometry relative="1" as="geometry">
            <Array as="points">
              <mxPoint x="666" y="366" />
            </Array>
          </mxGeometry>
        </mxCell>
        <mxCell id="BVZRWS0BD94PqxGaZcw--226" value="" style="curved=1;startArrow=none;endArrow=open;endSize=12;exitX=0.4;exitY=1;entryX=0.5;entryY=0;rounded=0;" edge="1" parent="1" source="BVZRWS0BD94PqxGaZcw--188" target="BVZRWS0BD94PqxGaZcw--192">
          <mxGeometry relative="1" as="geometry">
            <Array as="points">
              <mxPoint x="71" y="529" />
            </Array>
          </mxGeometry>
        </mxCell>
        <mxCell id="BVZRWS0BD94PqxGaZcw--227" value="" style="curved=1;startArrow=none;endArrow=open;endSize=12;exitX=0;exitY=0.92;entryX=0.5;entryY=0;rounded=0;" edge="1" parent="1" source="BVZRWS0BD94PqxGaZcw--177" target="BVZRWS0BD94PqxGaZcw--198">
          <mxGeometry relative="1" as="geometry">
            <Array as="points">
              <mxPoint x="861" y="366" />
            </Array>
          </mxGeometry>
        </mxCell>
        <mxCell id="BVZRWS0BD94PqxGaZcw--228" value="" style="curved=1;startArrow=none;endArrow=open;endSize=12;exitX=0.45;exitY=1;entryX=0.5;entryY=0;rounded=0;" edge="1" parent="1" source="BVZRWS0BD94PqxGaZcw--177" target="BVZRWS0BD94PqxGaZcw--210">
          <mxGeometry relative="1" as="geometry">
            <Array as="points">
              <mxPoint x="1045" y="366" />
            </Array>
          </mxGeometry>
        </mxCell>
        <mxCell id="BVZRWS0BD94PqxGaZcw--229" value="" style="curved=1;startArrow=none;endArrow=open;endSize=12;exitX=1;exitY=0.98;entryX=0.5;entryY=0;rounded=0;" edge="1" parent="1" source="BVZRWS0BD94PqxGaZcw--177" target="BVZRWS0BD94PqxGaZcw--214">
          <mxGeometry relative="1" as="geometry">
            <Array as="points">
              <mxPoint x="1240" y="366" />
            </Array>
          </mxGeometry>
        </mxCell>
        <mxCell id="BVZRWS0BD94PqxGaZcw--230" value="" style="curved=1;dashed=1;startArrow=none;endArrow=block;endSize=16;endFill=0;exitX=1;exitY=1;entryX=0.09;entryY=0;rounded=0;" edge="1" parent="1" source="BVZRWS0BD94PqxGaZcw--188" target="BVZRWS0BD94PqxGaZcw--217">
          <mxGeometry relative="1" as="geometry">
            <Array as="points">
              <mxPoint x="169" y="529" />
            </Array>
          </mxGeometry>
        </mxCell>
        <mxCell id="BVZRWS0BD94PqxGaZcw--231" value="" style="curved=1;dashed=1;startArrow=none;endArrow=block;endSize=16;endFill=0;exitX=0;exitY=0.25;entryX=0.998;entryY=0.204;rounded=0;exitDx=0;exitDy=0;entryDx=0;entryDy=0;entryPerimeter=0;" edge="1" parent="1" source="BVZRWS0BD94PqxGaZcw--195" target="BVZRWS0BD94PqxGaZcw--217">
          <mxGeometry relative="1" as="geometry">
            <Array as="points">
              <mxPoint x="390" y="560" />
            </Array>
          </mxGeometry>
        </mxCell>
        <mxCell id="BVZRWS0BD94PqxGaZcw--238" value="" style="curved=1;startArrow=none;endArrow=open;endSize=12;exitX=0.141;exitY=1.084;entryX=0.585;entryY=-0.03;rounded=0;exitDx=0;exitDy=0;exitPerimeter=0;entryDx=0;entryDy=0;entryPerimeter=0;" edge="1" parent="1" source="BVZRWS0BD94PqxGaZcw--241" target="BVZRWS0BD94PqxGaZcw--195">
          <mxGeometry relative="1" as="geometry">
            <Array as="points" />
            <mxPoint x="268.004" y="346.4585454545455" as="sourcePoint" />
            <mxPoint x="277.72" y="399.39999999999986" as="targetPoint" />
          </mxGeometry>
        </mxCell>
      </root>
    </mxGraphModel>
  </diagram>
</mxfile>
